<svg width="116" height="116" viewBox="0 0 116 116" fill="none" xmlns="http://www.w3.org/2000/svg">
<path d="M58 7.25C29.9742 7.25 7.25 29.9742 7.25 58C7.25 86.0258 29.9742 108.75 58 108.75C86.0258 108.75 108.75 86.0258 108.75 58C108.75 29.9742 86.0258 7.25 58 7.25ZM58 100.141C34.732 100.141 15.8594 81.268 15.8594 58C15.8594 34.732 34.732 15.8594 58 15.8594C81.268 15.8594 100.141 34.732 100.141 58C100.141 81.268 81.268 100.141 58 100.141Z" fill="white"/>
<path d="M81.4946 56.5387L47.952 32.1832C47.683 31.986 47.3645 31.8674 47.032 31.8406C46.6995 31.8137 46.3661 31.8797 46.0689 32.0313C45.7718 32.1828 45.5225 32.4138 45.349 32.6987C45.1754 32.9835 45.0844 33.311 45.086 33.6445V82.3555C45.086 83.8395 46.7625 84.6777 47.952 83.8168L81.4946 59.4613C81.7261 59.2945 81.9147 59.0749 82.0448 58.8209C82.1749 58.5668 82.2428 58.2854 82.2428 58C82.2428 57.7146 82.1749 57.4332 82.0448 57.1791C81.9147 56.9251 81.7261 56.7055 81.4946 56.5387ZM52.3133 71.7184V44.2816L71.1973 58L52.3133 71.7184Z" fill="white"/>
</svg>
