<svg width="32" height="32" viewBox="0 0 32 32" fill="none" xmlns="http://www.w3.org/2000/svg">
<path d="M18.8333 3.63112C18.8333 2.63804 18.0286 1.83337 17.0355 1.83337H14.9658C13.9713 1.83337 13.1666 2.63804 13.1666 3.63112C13.1666 4.44996 12.6056 5.15262 11.842 5.45296C11.7216 5.50112 11.6012 5.55212 11.4836 5.60312C10.7313 5.92896 9.83742 5.82979 9.25659 5.25037C8.91948 4.91351 8.46241 4.72428 7.98584 4.72428C7.50926 4.72428 7.05219 4.91351 6.71509 5.25037L5.25025 6.71521C4.91338 7.05231 4.72415 7.50939 4.72415 7.98596C4.72415 8.46253 4.91338 8.9196 5.25025 9.25671V9.25671C5.83109 9.83754 5.93025 10.73 5.60159 11.4837C5.54995 11.6023 5.50036 11.7218 5.45284 11.8421C5.1525 12.6057 4.44984 13.1667 3.631 13.1667C2.63792 13.1667 1.83325 13.9714 1.83325 14.9645V17.0356C1.83325 18.0287 2.63792 18.8334 3.631 18.8334C4.44984 18.8334 5.1525 19.3944 5.45284 20.158C5.501 20.2784 5.552 20.3988 5.60159 20.5164C5.92884 21.2686 5.82967 22.1625 5.25025 22.7434C4.91338 23.0805 4.72415 23.5376 4.72415 24.0141C4.72415 24.4907 4.91338 24.9478 5.25025 25.2849L6.71509 26.7497C7.05219 27.0866 7.50926 27.2758 7.98584 27.2758C8.46241 27.2758 8.91948 27.0866 9.25659 26.7497C9.83742 26.1689 10.7299 26.0697 11.4836 26.397C11.6012 26.4494 11.7216 26.499 11.842 26.5471C12.6056 26.8475 13.1666 27.5501 13.1666 28.369C13.1666 29.362 13.9713 30.1667 14.9643 30.1667H17.0355C18.0286 30.1667 18.8333 29.362 18.8333 28.369C18.8333 27.5501 19.3943 26.8475 20.1578 26.5457C20.2783 26.499 20.3987 26.4494 20.5163 26.3984C21.2685 26.0697 22.1624 26.1703 22.7418 26.7497C22.9088 26.9167 23.107 27.0492 23.3252 27.1396C23.5433 27.23 23.7771 27.2765 24.0133 27.2765C24.2494 27.2765 24.4833 27.23 24.7014 27.1396C24.9196 27.0492 25.1178 26.9167 25.2848 26.7497L26.7496 25.2849C27.0865 24.9478 27.2757 24.4907 27.2757 24.0141C27.2757 23.5376 27.0865 23.0805 26.7496 22.7434V22.7434C26.1688 22.1625 26.0696 21.27 26.3968 20.5164C26.4493 20.3988 26.4988 20.2784 26.547 20.158C26.8473 19.3944 27.55 18.8334 28.3688 18.8334C29.3619 18.8334 30.1666 18.0287 30.1666 17.0356V14.9659C30.1666 13.9728 29.3619 13.1681 28.3688 13.1681C27.55 13.1681 26.8473 12.6071 26.5456 11.8435C26.4981 11.7232 26.4485 11.6037 26.3968 11.4851C26.071 10.7329 26.1702 9.83896 26.7496 9.25812C27.0865 8.92102 27.2757 8.46395 27.2757 7.98737C27.2757 7.5108 27.0865 7.05373 26.7496 6.71662L25.2848 5.25179C24.9476 4.91492 24.4906 4.72569 24.014 4.72569C23.5374 4.72569 23.0804 4.91492 22.7433 5.25179V5.25179C22.1624 5.83262 21.2699 5.93179 20.5163 5.60454C20.3977 5.55242 20.2782 5.50236 20.1578 5.45437C19.3943 5.15262 18.8333 4.44996 18.8333 3.63254V3.63112Z" stroke="#0E47B0" stroke-width="2"/>
<path d="M21.6666 16C21.6666 17.5029 21.0696 18.9443 20.0069 20.007C18.9442 21.0697 17.5028 21.6667 15.9999 21.6667C14.497 21.6667 13.0557 21.0697 11.993 20.007C10.9303 18.9443 10.3333 17.5029 10.3333 16C10.3333 14.4971 10.9303 13.0558 11.993 11.9931C13.0557 10.9304 14.497 10.3334 15.9999 10.3334C17.5028 10.3334 18.9442 10.9304 20.0069 11.9931C21.0696 13.0558 21.6666 14.4971 21.6666 16V16Z" stroke="#0E47B0" stroke-width="2"/>
</svg>
