<svg width="42" height="34" viewBox="0 0 42 34" fill="none" xmlns="http://www.w3.org/2000/svg">
<path d="M4.34874 13.0769L17.1243 26.6647L10.9723 13.0769H4.34874ZM21 28.851L28.1568 13.0769H13.8432L21 28.851ZM11.0339 10.4615L15.2172 2.61538H9.84448L3.93861 10.4615H11.0339ZM24.8757 26.6647L37.6513 13.0769H31.0277L24.8757 26.6647ZM14.0073 10.4615H27.9927L23.8094 2.61538H18.1906L14.0073 10.4615ZM30.9661 10.4615H38.0614L32.1555 2.61538H26.7828L30.9661 10.4615ZM33.8576 0.53125L41.732 10.9928C41.9234 11.238 42.0123 11.5206 41.9986 11.8407C41.985 12.1609 41.8688 12.4367 41.65 12.6683L21.9638 33.5913C21.7177 33.8638 21.3965 34 21 34C20.6035 34 20.2823 33.8638 20.0362 33.5913L0.349977 12.6683C0.131241 12.4367 0.0150381 12.1609 0.0013671 11.8407C-0.0123039 11.5206 0.0765575 11.238 0.267951 10.9928L8.14244 0.53125C8.38852 0.177083 8.73713 0 9.18827 0H32.8117C33.2629 0 33.6115 0.177083 33.8576 0.53125Z" fill="#0E47B0"/>
</svg>
