<svg width="28" height="28" viewBox="0 0 28 28" fill="none" xmlns="http://www.w3.org/2000/svg">
<path d="M15.0199 12.3C14.3399 12.13 13.6599 11.79 13.1499 11.28C12.6399 11.11 12.4699 10.6 12.4699 10.26C12.4699 9.92002 12.6399 9.41002 12.9799 9.24002C13.4899 8.90002 13.9999 8.56002 14.5099 8.73002C15.5299 8.73002 16.3799 9.24002 16.8899 9.92002L18.4199 7.88002C17.9099 7.37002 17.3999 7.03002 16.8899 6.69002C16.3799 6.35002 15.6999 6.18002 15.0199 6.18002V3.80002H12.9799V6.18002C12.1299 6.35002 11.2799 6.86002 10.5999 7.54002C9.9199 8.39002 9.4099 9.41002 9.5799 10.43C9.5799 11.45 9.9199 12.47 10.5999 13.15C11.4499 14 12.6399 14.51 13.6599 15.02C14.1699 15.19 14.8499 15.53 15.3599 15.87C15.6999 16.21 15.8699 16.72 15.8699 17.23C15.8699 17.74 15.6999 18.25 15.3599 18.76C14.8499 19.27 14.1699 19.44 13.6599 19.44C12.9799 19.44 12.1299 19.27 11.6199 18.76C11.1099 18.42 10.5999 17.91 10.2599 17.4L8.5599 19.27C9.0699 19.95 9.5799 20.46 10.2599 20.97C11.1099 21.48 12.1299 21.99 13.1499 21.99V24.2H15.0199V21.65C16.0399 21.48 16.8899 20.97 17.5699 20.29C18.4199 19.44 18.9299 18.08 18.9299 16.89C18.9299 15.87 18.5899 14.68 17.7399 14C16.8899 13.15 16.0399 12.64 15.0199 12.3ZM13.9999 0.400024C6.5199 0.400024 0.399902 6.52002 0.399902 14C0.399902 21.48 6.5199 27.6 13.9999 27.6C21.4799 27.6 27.5999 21.48 27.5999 14C27.5999 6.52002 21.4799 0.400024 13.9999 0.400024ZM13.9999 25.73C7.5399 25.73 2.2699 20.46 2.2699 14C2.2699 7.54002 7.5399 2.27002 13.9999 2.27002C20.4599 2.27002 25.7299 7.54002 25.7299 14C25.7299 20.46 20.4599 25.73 13.9999 25.73Z" fill="#0E47B0"/>
</svg>
